<svg width="15" height="15" viewBox="0 0 15 15" fill="none" xmlns="http://www.w3.org/2000/svg">
    <path d="M13.1312 4.61253C13.204 4.6851 13.2617 4.77131 13.3011 4.86623C13.3405 4.96114 13.3607 5.0629 13.3607 5.16566C13.3607 5.26842 13.3405 5.37017 13.3011 5.46508C13.2617 5.56 13.204 5.64621 13.1312 5.71878L7.93748 10.9125C7.87965 10.9705 7.81097 11.0164 7.73537 11.0478C7.65976 11.0792 7.57871 11.0953 7.49685 11.0953C7.415 11.0953 7.33394 11.0792 7.25834 11.0478C7.18273 11.0164 7.11405 10.9705 7.05623 10.9125L1.86247 5.71878C1.55622 5.41253 1.55622 4.91878 1.86247 4.61253C2.16873 4.30628 2.66248 4.30628 2.96873 4.61253L7.49998 9.13753L12.0312 4.60628C12.3312 4.30628 12.8312 4.30628 13.1312 4.61253Z" fill="#29293E"/>
</svg>
