<svg width="24" height="24" viewBox="0 0 24 24" fill="none" xmlns="http://www.w3.org/2000/svg">
<path d="M3.80396 4.95029C4.66754 3.99331 5.85332 3.46685 7.14587 3.46685C8.08863 3.46685 8.95393 3.77234 9.72114 4.37853C10.4075 4.92098 10.8884 5.60954 11.1717 6.09477L11.1717 6.0948C11.3464 6.39386 11.6564 6.57476 12 6.57476C12.3436 6.57476 12.6536 6.39386 12.8283 6.0948L12.7061 6.02342L12.8283 6.0948C13.1117 5.60954 13.5926 4.92096 14.2789 4.37851C15.0461 3.77234 15.9114 3.46685 16.8543 3.46685C18.1467 3.46685 19.3326 3.99332 20.196 4.95027C21.0735 5.92282 21.5614 7.27274 21.5614 8.75591C21.5614 10.3114 20.9982 11.7092 19.7095 13.2982C18.4592 14.8399 16.5962 16.4625 14.4222 18.3559C13.69 18.9932 12.8635 19.7131 11.9983 20.4817C11.1381 19.7145 10.3129 18.9958 9.58233 18.3596L9.58105 18.3585L9.57829 18.3562C9.5781 18.356 9.57792 18.3559 9.57773 18.3557C7.40381 16.4626 5.54088 14.8397 4.29065 13.2982L4.17415 13.3927L4.29065 13.2982C3.00185 11.7092 2.43856 10.3114 2.43856 8.75591C2.43856 7.27274 2.92652 5.92283 3.80396 4.95029ZM3.80396 4.95029L3.6926 4.84979L3.80396 4.95029ZM8.54831 19.587L8.54943 19.588C9.30548 20.2463 10.1616 20.9919 11.0496 21.7853C11.3121 22.0203 11.6496 22.15 12 22.15C12.3502 22.15 12.6879 22.0203 12.9503 21.7856C13.8402 20.9904 14.6977 20.2436 15.4551 19.5842L15.4551 19.5842L15.4642 19.5763C17.6731 17.6527 19.5948 15.9792 20.9347 14.3272C22.4396 12.4718 23.15 10.6992 23.15 8.75591C23.15 6.87564 22.5191 5.13455 21.3663 3.85678L21.2555 3.95672L21.3663 3.85677C20.199 2.56314 18.5957 1.85 16.8543 1.85C15.5496 1.85 14.354 2.27226 13.3047 3.10157C12.8264 3.47949 12.3899 3.93304 12 4.45527C11.6102 3.93302 11.1736 3.47948 10.6955 3.10158L10.6955 3.10157C9.64612 2.27226 8.45055 1.85 7.14587 1.85C5.40427 1.85 3.80116 2.56314 2.6339 3.85677L2.6339 3.85678C1.48107 5.13455 0.85 6.87563 0.85 8.75591C0.85 10.6992 1.56061 12.4718 3.06551 14.3274L3.18201 14.2329L3.06551 14.3274C4.4057 15.9797 6.32824 17.6538 8.53825 19.5782L8.54445 19.5836L8.54557 19.5846L8.54831 19.587Z" fill="black" stroke="black" stroke-width="0.3"/>
</svg>
