<svg width="38" height="38" viewBox="0 0 38 38" fill="none" xmlns="http://www.w3.org/2000/svg">
    <path d="M33.2491 10.3681C33.2375 10.2134 33.1081 10.0938 32.9531 10.0938H27.6093V8.60938C27.6093 3.86205 23.747 0 19 0C14.2529 0 10.3906 3.86205 10.3906 8.60938V10.0938H5.04684C4.89187 10.0938 4.76243 10.2134 4.75085 10.3681L2.67273 37.6806C2.66649 37.7628 2.69469 37.8441 2.7511 37.9047C2.80721 37.9656 2.88618 38 2.96871 38H35.0312C35.1138 38 35.1927 37.9656 35.2488 37.905C35.3049 37.8444 35.3334 37.7631 35.3272 37.6809L33.2491 10.3681ZM12.7656 8.60938C12.7656 5.17186 15.5622 2.375 19 2.375C22.4378 2.375 25.2343 5.17186 25.2343 8.60938V10.0938H12.7656V8.60938ZM11.5781 18.4062C9.94082 18.4062 8.60934 17.0745 8.60934 15.4375C8.60934 14.2527 9.20309 13.1851 10.3906 12.7166V15.4375C10.3906 16.0924 10.9235 16.625 11.5781 16.625C12.2327 16.625 12.7656 16.0924 12.7656 15.4375V12.7184C13.9531 13.1869 14.5468 14.2625 14.5468 15.4375C14.5468 17.0745 13.2154 18.4062 11.5781 18.4062ZM26.4218 18.4062C24.7846 18.4062 23.4531 17.0745 23.4531 15.4375C23.4531 14.2527 24.0468 13.1851 25.2343 12.7166V15.4375C25.2343 16.0924 25.7672 16.625 26.4218 16.625C27.0765 16.625 27.6093 16.0924 27.6093 15.4375V12.7184C28.7968 13.1869 29.3906 14.2625 29.3906 15.4375C29.3906 17.0745 28.0591 18.4062 26.4218 18.4062Z" fill="white"/>
</svg>
