<svg width="28" height="27" viewBox="0 0 28 27" fill="none" xmlns="http://www.w3.org/2000/svg">
    <g clip-path="url(#clip0)">
        <path d="M23.7178 7.68579C23.7096 7.57546 23.6172 7.49011 23.5067 7.49011H19.6948V6.43125C19.6948 3.0448 16.9396 0.289856 13.5534 0.289856C10.1672 0.289856 7.412 3.0448 7.412 6.43125V7.49011H3.6001C3.48955 7.49011 3.39722 7.57546 3.38896 7.68579L1.90655 27.1688C1.9021 27.2275 1.92222 27.2855 1.96246 27.3287C2.00248 27.3721 2.05882 27.3967 2.11769 27.3967H24.9891C25.048 27.3967 25.1043 27.3721 25.1443 27.3289C25.1844 27.2857 25.2047 27.2277 25.2002 27.169L23.7178 7.68579ZM9.10617 6.43125C9.10617 3.97914 11.1011 1.98403 13.5534 1.98403C16.0057 1.98403 18.0006 3.97914 18.0006 6.43125V7.49011H9.10617V6.43125ZM8.25909 13.4197C7.09116 13.4197 6.14136 12.4697 6.14136 11.302C6.14136 10.4568 6.56491 9.6953 7.412 9.36112V11.302C7.412 11.7692 7.79213 12.1491 8.25909 12.1491C8.72604 12.1491 9.10617 11.7692 9.10617 11.302V9.36239C9.95326 9.69657 10.3768 10.4638 10.3768 11.302C10.3768 12.4697 9.42701 13.4197 8.25909 13.4197ZM18.8477 13.4197C17.6798 13.4197 16.73 12.4697 16.73 11.302C16.73 10.4568 17.1535 9.6953 18.0006 9.36112V11.302C18.0006 11.7692 18.3807 12.1491 18.8477 12.1491C19.3147 12.1491 19.6948 11.7692 19.6948 11.302V9.36239C20.5419 9.69657 20.9654 10.4638 20.9654 11.302C20.9654 12.4697 20.0156 13.4197 18.8477 13.4197Z" fill="black"/>
    </g>
    <defs>
        <clipPath id="clip0">
            <rect width="27.1068" height="27.1068" fill="white" transform="translate(0 0.289856)"/>
        </clipPath>
    </defs>
</svg>
