<svg width="40" height="40" viewBox="0 0 40 40" fill="none" xmlns="http://www.w3.org/2000/svg">
<circle cx="20" cy="20" r="20" fill="white" fill-opacity="0.9"/>
<path d="M16.6666 12.0833L14.1666 12.9166L11.6666 14.5833V20L16.25 24.5833L20 27.5L25.8333 22.5L27.9166 19.1666V15.4166L26.25 12.9166L22.9166 12.5L20.4166 14.5833L19.5833 13.75L16.6666 12.0833Z" fill="#C0C0CD"/>
<path d="M12.6517 21.8607L12.5352 21.9552C13.6533 23.3338 15.2568 24.7301 17.0973 26.3327L17.1037 26.3383L17.1049 26.3393L17.1069 26.3412L17.1069 26.3412L17.1081 26.3422C17.7381 26.8908 18.4515 27.512 19.1913 28.1731C19.4146 28.3729 19.7018 28.4833 20 28.4833C20.298 28.4833 20.5853 28.3729 20.8085 28.1733C21.55 27.5108 22.2645 26.8885 22.8956 26.339L22.8957 26.339L22.9047 26.3311C24.7443 24.7292 26.3471 23.3335 27.4649 21.9551C28.7217 20.4056 29.3166 18.923 29.3166 17.2966C29.3166 15.7242 28.789 14.2671 27.8238 13.1972L27.7124 13.2977L27.8238 13.1972C26.8463 12.1139 25.5035 11.5167 24.0452 11.5167C22.9522 11.5167 21.9505 11.8705 21.0717 12.565C20.6795 12.8749 20.321 13.2455 20 13.6711C19.679 13.2455 19.3205 12.8749 18.9284 12.565L18.9284 12.565C18.0496 11.8705 17.0479 11.5167 15.9549 11.5167C14.4965 11.5167 13.1538 12.1139 12.1763 13.1972L12.1763 13.1972C11.2111 14.2671 10.6833 15.7242 10.6833 17.2966C10.6833 18.923 11.2784 20.4056 12.5352 21.9552L12.6517 21.8607ZM21.8215 13.5507C21.2328 14.016 20.8227 14.6043 20.5823 15.0159C20.4586 15.2276 20.241 15.354 20 15.354C19.759 15.354 19.5413 15.2276 19.4177 15.0159C19.1774 14.6043 18.7673 14.016 18.1784 13.5507H21.8215ZM15.9549 12.914C16.7347 12.914 17.4503 13.1666 18.0854 13.6684C18.6541 14.1178 19.0529 14.6887 19.2881 15.0916L19.2882 15.0916C19.4381 15.3483 19.7045 15.504 20 15.504C20.2954 15.504 20.5618 15.3483 20.7118 15.0916C20.9472 14.6887 21.346 14.1177 21.9146 13.6684C22.5496 13.1666 23.2653 12.914 24.0452 12.914C25.1152 12.914 26.0967 13.3498 26.8114 14.142C27.538 14.9473 27.9428 16.066 27.9428 17.2966C27.9428 18.5856 27.4765 19.745 26.4052 21.066C25.3649 22.3487 23.8144 23.6994 22.0021 25.2777C21.3966 25.8047 20.7136 26.3995 19.9986 27.0346C19.2877 26.4008 18.6058 25.8069 18.0017 25.2808L18.0004 25.2797L17.9983 25.278C17.9981 25.2778 17.9979 25.2776 17.9977 25.2774C16.1855 23.6994 14.6351 22.3486 13.5949 21.066L13.4784 21.1605L13.5949 21.066C12.5235 19.745 12.0571 18.5856 12.0571 17.2966C12.0571 16.066 12.462 14.9473 13.1885 14.142C13.9034 13.3498 14.8848 12.914 15.9549 12.914Z" fill="#C0C0CD" stroke="#C0C0CD" stroke-width="0.3"/>
</svg>
