<svg width="20" height="20" viewBox="0 0 20 20" fill="none" xmlns="http://www.w3.org/2000/svg">
<path fill-rule="evenodd" clip-rule="evenodd" d="M18.1805 10C18.1805 9.75893 18.0848 9.52773 17.9143 9.35726C17.7438 9.1868 17.5126 9.09103 17.2716 9.09103L0.910099 9.09103C0.669025 9.09103 0.437824 9.1868 0.267359 9.35726C0.0968952 9.52773 0.00112915 9.75893 0.00112915 10C0.00112915 10.2411 0.0968952 10.4723 0.267359 10.6427C0.437824 10.8132 0.669025 10.909 0.910099 10.909L17.2716 10.909C17.5126 10.909 17.7438 10.8132 17.9143 10.6427C18.0848 10.4723 18.1805 10.2411 18.1805 10Z" fill="white"/>
<path fill-rule="evenodd" clip-rule="evenodd" d="M19.733 10.6435C19.8176 10.5591 19.8848 10.4588 19.9306 10.3484C19.9764 10.2379 20 10.1196 20 9.99999C20 9.88043 19.9764 9.76205 19.9306 9.65162C19.8848 9.54118 19.8176 9.44088 19.733 9.35644L14.2791 3.90262C14.1085 3.73194 13.877 3.63605 13.6356 3.63605C13.3942 3.63605 13.1627 3.73194 12.992 3.90262C12.8213 4.0733 12.7255 4.30479 12.7255 4.54617C12.7255 4.78755 12.8213 5.01904 12.992 5.18972L17.8041 9.99999L12.992 14.8103C12.8213 14.9809 12.7255 15.2124 12.7255 15.4538C12.7255 15.6952 12.8213 15.9267 12.992 16.0974C13.1627 16.268 13.3942 16.3639 13.6356 16.3639C13.877 16.3639 14.1085 16.268 14.2791 16.0974L19.733 10.6435Z" fill="white"/>
</svg>
